# xmcd
#
# Track frame offsets: 
#        150
#        17154
#        37882
#        63846
#        78976
#        95993
#        114796
#        129561
#        152194
#        168757
#        190781
#        212216
#
# Disc length: 3073 seconds
#
# Revision: 1
# Processed by: cddbd v1.5.2PL0 Copyright (c) Steve Scherf et al.
# Submitted via: ExactAudioCopy v1.1
#
DISCID=950bff0c
DTITLE=Shirley Bassey - Love, Life And Feelings
DYEAR=1976
DGENRE=Pop
TTITLE0=What I Did For Love
TTITLE1=The Hungry Years
TTITLE2=Born To Lose
TTITLE3=Everything That Touches You
TTITLE4=Isn't It A Shame
TTITLE5=Midnight Blue
TTITLE6=The Way That I Want To Touch You
TTITLE7=Natali
TTITLE8=You've Made Me So Very Happy
TTITLE9=Alone Again (Naturally)
TTITLE10=Feelings
TTITLE11=If I Never Sing Another Song
EXTD=
EXTT0=
EXTT1=
EXTT2=
EXTT3=
EXTT4=
EXTT5=
EXTT6=
EXTT7=
EXTT8=
EXTT9=
EXTT10=
EXTT11=
PLAYORDER=
